<?xml version="1.0" encoding="UTF-8" ?>
<!DOCTYPE svg PUBLIC "-//W3C//DTD SVG 1.1//EN" "http://www.w3.org/Graphics/SVG/1.1/DTD/svg11.dtd">
<svg width="1024pt" height="1024pt" viewBox="0 0 1024 1024" version="1.1" xmlns="http://www.w3.org/2000/svg">
<g id="#050603ff">
</g>
<g id="#f57802ff">
<path fill="#f57802" stroke="#f57802" stroke-width="0.09375" opacity="1.00" d=" M 134.91 58.78 C 159.83 82.96 184.09 107.81 209.25 131.75 C 240.19 162.14 270.05 193.64 301.77 223.23 C 347.63 269.71 394.62 315.06 441.29 360.71 C 448.30 367.25 456.30 378.08 449.48 387.50 C 440.85 397.21 432.33 407.75 429.68 420.84 C 426.43 431.89 432.92 443.95 442.80 449.14 C 451.09 453.73 460.81 454.25 470.08 454.17 C 470.05 457.78 470.03 461.38 470.00 464.99 C 455.09 465.31 439.98 460.14 428.98 449.96 C 419.67 441.06 417.15 426.51 421.54 414.61 C 425.18 404.97 431.47 396.68 437.55 388.48 C 439.90 385.09 442.71 381.02 441.30 376.69 C 438.90 368.42 432.09 362.65 426.23 356.77 C 389.12 320.83 351.67 285.23 315.09 248.75 C 315.12 264.46 311.12 283.59 324.77 295.17 C 339.58 310.37 355.05 324.93 369.31 340.66 C 376.10 347.96 383.90 354.85 387.76 364.28 C 391.33 372.52 390.68 381.79 389.30 390.44 C 386.61 405.94 381.31 421.10 381.10 436.96 C 381.06 446.60 387.78 454.36 394.24 460.77 C 406.51 472.49 419.15 483.84 431.28 495.71 C 421.28 492.80 412.72 486.63 404.38 480.61 C 393.12 472.08 381.48 462.90 375.11 449.94 C 373.31 445.04 368.76 442.26 365.16 438.83 C 354.46 427.87 342.80 416.37 339.03 400.99 C 352.48 409.25 361.21 422.74 372.78 433.15 C 372.84 426.55 375.00 420.07 374.58 413.50 C 362.96 400.84 350.25 389.09 337.83 377.18 C 321.09 360.13 317.74 335.19 314.42 312.61 C 327.47 325.86 324.54 346.85 336.06 360.92 C 348.90 375.92 364.83 387.88 377.60 402.97 C 380.07 391.94 383.55 380.33 379.93 369.13 C 376.76 358.47 367.71 351.40 360.29 343.72 C 345.91 329.12 330.69 315.34 317.13 299.95 C 312.17 294.31 307.33 287.80 306.90 280.01 C 306.08 267.70 306.85 255.35 306.59 243.03 C 306.53 238.42 301.87 235.97 299.19 232.82 C 280.13 213.21 259.37 195.31 241.19 174.85 C 209.45 142.63 177.02 111.10 144.47 79.71 C 147.88 100.64 150.08 121.85 155.74 142.34 C 157.78 150.22 163.36 156.41 168.76 162.23 C 190.31 185.34 211.73 208.58 232.84 232.08 C 240.09 239.34 236.10 250.40 236.76 259.47 C 222.91 249.42 210.11 237.97 196.44 227.67 C 199.50 243.26 201.67 259.04 205.43 274.48 C 207.18 283.14 214.53 288.64 220.06 294.91 C 228.94 305.00 238.17 314.78 247.54 324.42 C 260.00 338.30 274.40 350.38 285.93 365.07 C 292.23 372.30 288.12 382.43 288.86 391.01 C 277.83 382.37 267.30 373.12 256.05 364.76 C 255.62 375.08 257.08 385.77 262.10 394.94 C 266.69 402.99 273.33 409.59 279.32 416.60 C 297.17 437.37 316.79 456.52 334.90 477.06 C 341.82 484.55 349.11 491.70 356.25 498.97 C 346.15 498.46 335.86 498.73 325.98 496.28 C 343.04 512.51 360.74 528.05 378.23 543.80 C 350.06 528.19 325.15 507.32 301.82 485.26 C 313.12 487.80 324.72 488.47 336.18 489.94 C 316.29 468.80 296.64 447.41 277.03 426.00 C 268.93 416.11 258.72 407.52 253.46 395.62 C 247.39 380.35 248.64 363.61 246.49 347.60 C 258.75 356.21 270.22 365.87 282.17 374.88 C 277.01 365.13 268.96 357.44 261.36 349.61 C 242.47 329.53 222.12 310.76 204.76 289.29 C 198.40 281.64 196.90 271.52 195.03 262.07 C 191.78 243.67 188.30 225.30 185.24 206.87 C 200.24 218.87 214.13 232.38 230.18 243.02 C 218.68 225.55 202.98 211.40 189.00 195.98 C 178.27 184.06 166.97 172.65 156.68 160.34 C 149.25 151.60 147.08 139.98 144.73 129.09 C 140.63 105.80 136.68 82.38 134.91 58.78 Z" />
<path fill="#f57802" stroke="#f57802" stroke-width="0.09375" opacity="1.00" d=" M 834.58 112.63 C 852.91 94.86 870.68 76.51 889.04 58.77 C 886.06 85.63 882.45 112.53 876.87 138.99 C 874.90 150.45 868.33 160.25 860.34 168.42 C 842.74 188.10 824.53 207.22 806.74 226.73 C 801.94 231.87 797.34 237.27 793.99 243.48 C 809.16 232.23 823.25 219.58 838.09 207.89 C 835.83 225.12 832.16 242.12 829.51 259.29 C 827.70 268.80 826.84 279.04 821.26 287.28 C 811.41 300.58 799.31 311.94 788.21 324.16 C 772.71 340.70 755.09 355.49 742.08 374.19 C 753.56 365.88 765.00 357.49 776.14 348.73 C 776.06 366.54 776.15 385.41 767.47 401.52 C 759.63 414.26 748.46 424.44 738.70 435.66 C 722.41 454.12 704.56 471.17 688.69 489.98 C 699.91 488.92 711.12 487.74 722.31 486.39 C 701.07 505.90 677.71 523.18 653.02 538.06 C 667.32 523.67 682.45 510.11 698.00 497.08 C 687.96 498.51 677.81 499.20 667.67 499.22 C 692.77 474.44 716.43 448.24 740.22 422.21 C 746.88 414.52 754.13 407.28 759.94 398.91 C 766.12 388.78 768.09 376.59 768.04 364.88 C 756.84 373.34 745.81 382.01 735.30 391.33 C 735.17 384.65 733.87 377.97 734.44 371.30 C 736.07 366.52 740.04 363.03 743.26 359.30 C 766.52 334.87 790.93 311.48 812.73 285.70 C 815.54 282.51 817.55 278.67 818.52 274.53 C 822.34 259.19 824.75 243.56 827.09 227.94 C 813.34 238.32 800.31 249.60 786.88 260.38 C 788.64 250.28 784.60 237.74 793.00 229.95 C 815.40 206.03 837.52 181.85 859.48 157.53 C 865.73 150.94 868.95 142.26 870.33 133.41 C 873.97 115.73 876.07 97.79 878.96 79.98 C 844.94 113.28 810.65 146.32 777.32 180.31 C 758.14 197.76 740.17 216.50 721.61 234.61 C 719.57 236.81 716.62 238.83 716.51 242.12 C 715.94 253.76 716.19 265.44 715.85 277.09 C 715.54 289.86 706.98 300.58 697.71 308.54 C 700.48 301.81 707.29 297.87 710.10 291.09 C 708.25 293.01 706.43 294.96 704.63 296.93 C 703.17 296.41 701.71 295.88 700.26 295.36 C 695.65 300.09 691.70 305.81 685.55 308.68 C 692.45 299.56 703.29 292.94 706.56 281.44 C 708.73 270.43 707.81 259.07 707.69 247.92 C 682.38 273.55 655.48 297.54 630.28 323.28 C 616.14 336.43 602.25 349.87 588.57 363.51 C 583.25 368.98 576.60 376.20 579.63 384.47 C 583.52 392.77 590.33 399.33 594.18 407.69 C 593.28 410.35 592.43 413.04 591.61 415.73 C 590.82 414.33 590.04 412.94 589.26 411.56 C 590.39 420.37 594.83 432.02 586.84 438.82 C 593.86 425.11 587.17 408.84 578.31 397.68 C 574.16 392.56 567.36 388.28 567.28 381.01 C 567.67 372.30 574.57 366.07 580.28 360.28 C 635.93 306.61 691.52 252.86 746.30 198.28 C 776.74 170.79 804.80 140.82 834.58 112.63 Z" />
<path fill="#f57802" stroke="#f57802" stroke-width="0.09375" opacity="1.00" d=" M 503.41 307.53 C 514.76 303.52 527.43 314.25 526.13 325.96 C 526.05 334.56 518.65 342.29 509.99 342.39 C 499.70 343.69 490.33 334.15 490.74 324.01 C 490.61 316.44 496.19 309.50 503.41 307.53 Z" />
<path fill="#f57802" stroke="#f57802" stroke-width="0.09375" opacity="1.00" d=" M 681.50 311.83 C 682.57 311.07 683.87 310.73 685.15 310.50 C 684.51 312.24 683.01 313.41 681.31 314.02 C 681.36 313.48 681.45 312.38 681.50 311.83 Z" />
<path fill="#f57802" stroke="#f57802" stroke-width="0.09375" opacity="1.00" d=" M 695.16 310.69 C 695.52 310.59 696.22 310.39 696.57 310.29 C 681.16 327.22 664.37 342.91 648.22 359.14 C 649.97 354.33 653.89 350.92 657.50 347.51 C 670.24 335.44 681.88 322.11 695.16 310.69 Z" />
<path fill="#f57802" stroke="#f57802" stroke-width="0.09375" opacity="1.00" d=" M 692.10 350.06 C 697.27 337.49 699.40 323.23 708.54 312.64 C 707.88 323.89 704.39 334.68 701.52 345.50 C 699.14 353.94 696.39 362.71 690.31 369.28 C 676.89 384.17 662.44 398.09 648.19 412.18 C 642.05 417.13 647.05 425.54 646.25 432.11 L 645.36 431.86 C 644.13 425.11 641.25 416.45 647.01 410.99 C 651.59 406.26 656.42 401.79 660.97 397.04 C 659.59 397.36 658.22 397.70 656.85 398.03 C 656.82 396.75 656.81 395.48 656.80 394.21 C 653.60 397.69 650.09 400.95 645.93 403.24 C 654.43 393.06 664.71 384.50 673.28 374.35 C 680.31 366.93 688.31 359.82 692.10 350.06 Z" />
<path fill="#f57802" stroke="#f57802" stroke-width="0.09375" opacity="1.00" d=" M 661.20 333.19 C 666.84 327.77 671.81 321.58 678.13 316.90 C 674.02 323.98 667.47 329.05 661.94 334.94 C 656.35 340.35 651.44 346.56 644.85 350.83 C 649.38 344.15 655.72 339.04 661.20 333.19 Z" />
<path fill="#f57802" stroke="#f57802" stroke-width="0.09375" opacity="1.00" d=" M 632.34 392.31 C 630.00 380.87 629.46 367.05 638.35 358.13 C 634.26 366.77 631.10 376.31 633.13 385.94 C 633.91 398.87 637.47 411.49 637.63 424.43 C 635.12 415.68 633.56 406.61 633.07 397.52 C 633.09 395.75 632.80 394.00 632.34 392.31 Z" />
<path fill="#f57802" stroke="#f57802" stroke-width="0.09375" opacity="1.00" d=" M 645.97 360.52 C 646.27 360.46 646.87 360.35 647.18 360.29 C 644.96 364.64 641.67 368.55 640.62 373.41 C 639.57 378.87 641.28 384.35 641.09 389.83 C 641.01 391.76 640.88 393.70 640.76 395.63 C 637.88 383.99 636.27 369.54 645.97 360.52 Z" />
<path fill="#f57802" stroke="#f57802" stroke-width="0.09375" opacity="1.00" d=" M 499.86 385.93 C 500.42 383.73 501.73 381.82 503.55 380.47 C 505.09 396.99 502.53 413.50 501.15 429.94 C 506.77 430.01 512.38 430.00 518.00 429.95 C 514.87 413.69 513.00 397.16 512.55 380.61 C 521.27 391.61 523.04 406.25 528.03 419.07 C 530.55 425.95 531.46 433.79 536.71 439.31 C 533.84 438.27 531.62 436.06 530.85 433.07 C 525.51 417.00 521.06 400.58 514.31 385.01 C 515.04 400.48 517.65 415.76 519.12 431.15 C 512.72 431.92 506.25 431.72 499.86 431.05 C 500.28 415.93 502.67 400.89 501.83 385.74 C 497.10 400.43 494.36 415.64 490.65 430.60 C 489.52 435.87 485.69 439.82 482.02 443.50 C 490.52 447.55 499.29 451.54 509.01 449.92 C 519.56 451.46 529.43 447.97 538.91 443.80 C 538.46 442.50 538.02 441.21 537.56 439.92 C 538.89 440.97 540.18 442.06 541.47 443.17 C 538.19 446.53 533.58 447.67 529.09 448.31 C 528.30 449.44 527.53 450.58 526.77 451.73 C 515.26 451.68 503.76 451.66 492.26 451.75 C 492.03 450.68 491.81 449.62 491.59 448.56 C 487.23 447.60 482.78 446.32 479.55 443.07 C 482.75 439.75 487.48 437.31 488.49 432.43 C 492.40 416.97 495.26 401.22 499.86 385.93 Z" />
<path fill="#f57802" stroke="#f57802" stroke-width="0.09375" opacity="1.00" d=" M 654.37 425.41 C 662.87 415.10 671.94 404.41 683.86 397.94 C 679.95 409.69 672.38 420.28 662.81 428.08 C 669.00 419.16 676.72 411.25 681.09 401.14 C 670.90 407.83 664.34 418.52 654.37 425.41 Z" />
<path fill="#f57802" stroke="#f57802" stroke-width="0.09375" opacity="1.00" d=" M 647.11 432.29 C 648.84 430.23 650.88 428.44 653.14 426.97 C 651.90 429.49 649.96 431.68 647.11 432.29 Z" />
<path fill="#f57802" stroke="#f57802" stroke-width="0.09375" opacity="1.00" d=" M 659.14 432.87 C 656.73 437.08 654.18 431.56 658.93 432.38 L 659.14 432.87 Z" />
<path fill="#f57802" stroke="#f57802" stroke-width="0.09375" opacity="1.00" d=" M 641.86 450.09 C 644.06 443.63 648.80 438.33 655.31 436.04 C 652.04 440.19 646.59 442.53 644.72 447.73 C 641.90 454.94 637.19 461.62 630.56 465.78 C 634.32 460.55 639.23 456.07 641.86 450.09 Z" />
<path fill="#f57802" stroke="#f57802" stroke-width="0.09375" opacity="1.00" d=" M 589.75 494.85 C 603.36 481.04 617.07 467.28 631.07 453.87 C 622.58 467.15 608.84 476.02 599.13 488.36 C 599.63 488.24 600.63 488.01 601.13 487.90 C 597.77 490.86 593.81 493.02 589.75 494.85 Z" />
<path fill="#f57802" stroke="#f57802" stroke-width="0.09375" opacity="1.00" d=" M 491.71 459.84 C 494.94 459.95 498.17 460.10 501.40 460.34 C 498.70 460.78 496.00 461.19 493.31 461.58 C 493.29 465.21 493.28 468.84 493.29 472.48 C 496.09 472.75 498.90 473.06 501.70 473.44 L 502.64 473.57 C 499.03 474.24 495.37 474.47 491.71 474.41 C 491.56 469.55 491.58 464.69 491.71 459.84 Z" />
<path fill="#f57802" stroke="#f57802" stroke-width="0.09375" opacity="1.00" d=" M 484.93 476.19 C 491.62 476.19 498.31 476.02 505.01 475.99 C 505.42 484.33 505.46 492.68 505.09 501.02 C 498.10 501.06 491.10 501.05 484.12 501.00 C 484.45 492.73 484.55 484.45 484.93 476.19 M 486.26 478.28 C 486.37 485.43 486.37 492.59 486.26 499.75 C 492.09 499.62 497.93 499.62 503.77 499.76 C 503.60 492.56 503.62 485.35 503.75 478.15 C 497.92 478.23 492.09 478.30 486.26 478.28 Z" />
<path fill="#f57802" stroke="#f57802" stroke-width="0.09375" opacity="1.00" d=" M 481.09 508.01 C 490.44 508.25 499.85 507.30 509.15 508.63 C 498.78 511.57 487.34 507.37 477.57 512.71 C 478.74 511.14 479.91 509.57 481.09 508.01 Z" />
<path fill="#f57802" stroke="#f57802" stroke-width="0.09375" opacity="1.00" d=" M 509.92 509.19 C 518.93 515.26 516.54 526.63 517.15 535.90 C 517.38 542.12 517.32 548.36 516.67 554.57 C 513.63 539.58 518.53 522.78 509.92 509.19 Z" />
<path fill="#f57802" stroke="#f57802" stroke-width="0.09375" opacity="1.00" d=" M 624.99 509.98 C 625.82 509.98 627.49 509.99 628.32 510.00 C 628.32 525.99 628.27 541.99 628.26 557.99 C 627.40 557.99 625.68 558.00 624.82 558.00 C 624.35 541.99 624.93 525.98 624.99 509.98 M 626.52 557.23 C 626.77 542.08 626.76 526.92 626.52 511.78 C 626.20 526.92 626.21 542.08 626.52 557.23 Z" />
<path fill="#f57802" stroke="#f57802" stroke-width="0.09375" opacity="1.00" d=" M 517.39 599.60 C 517.53 586.26 515.46 572.85 517.54 559.59 C 519.32 571.29 518.58 583.20 519.01 595.00 C 519.07 615.61 520.94 636.18 520.34 656.79 C 522.30 656.80 524.26 656.80 526.22 656.81 C 526.99 658.94 528.50 661.20 527.56 663.53 C 527.26 664.46 526.96 665.39 526.65 666.33 C 526.19 663.73 525.78 661.13 525.39 658.53 C 523.30 658.33 521.21 658.13 519.14 657.94 C 518.71 638.49 518.00 619.05 517.39 599.60 Z" />
<path fill="#f57802" stroke="#f57802" stroke-width="0.09375" opacity="1.00" d=" M 561.78 562.96 C 563.58 562.94 565.38 562.97 567.19 563.03 C 566.58 564.51 566.90 567.46 564.85 567.69 C 562.18 568.34 562.35 564.62 561.78 562.96 Z" />
<path fill="#f57802" stroke="#f57802" stroke-width="0.09375" opacity="1.00" d=" M 615.02 562.82 C 622.98 562.81 630.94 562.84 638.90 562.95 C 638.83 567.22 638.82 571.49 638.83 575.76 C 630.90 575.56 622.96 575.72 615.04 575.91 C 615.01 571.55 615.01 567.18 615.02 562.82 M 617.05 564.25 C 617.01 567.49 616.97 570.73 616.94 573.97 C 623.64 573.78 630.34 573.74 637.04 573.88 C 636.98 570.67 636.91 567.46 636.86 564.26 C 630.25 564.37 623.65 564.37 617.05 564.25 Z" />
<path fill="#f57802" stroke="#f57802" stroke-width="0.09375" opacity="1.00" d=" M 730.28 577.91 C 725.95 574.70 731.06 569.64 735.10 571.93 C 735.77 575.12 734.46 579.88 730.28 577.91 M 730.96 572.91 C 730.67 573.95 730.40 575.00 730.13 576.06 C 731.37 576.09 732.62 576.12 733.88 576.15 C 733.75 575.55 733.49 574.33 733.36 573.72 C 732.76 573.52 731.56 573.11 730.96 572.91 Z" />
<path fill="#f57802" stroke="#f57802" stroke-width="0.09375" opacity="1.00" d=" M 579.12 595.42 C 597.18 580.76 621.95 582.30 643.77 583.49 C 657.50 586.76 671.91 591.75 682.09 601.91 C 673.48 597.01 665.21 591.32 655.62 588.44 C 642.78 583.27 628.75 585.08 615.27 584.73 C 602.37 584.61 590.59 590.23 579.12 595.42 Z" />
<path fill="#f57802" stroke="#f57802" stroke-width="0.09375" opacity="1.00" d=" M 369.00 588.91 C 370.33 588.91 371.67 588.93 373.02 588.95 C 373.04 608.75 372.95 628.55 373.05 648.34 C 375.33 648.32 377.62 648.27 379.91 648.22 C 379.90 653.46 379.89 658.69 379.88 663.92 C 374.26 664.03 368.65 664.03 363.04 664.00 C 363.07 658.93 363.05 653.87 363.01 648.80 C 364.99 648.83 366.98 648.87 368.97 648.90 L 368.51 649.54 C 367.35 649.95 366.20 650.34 365.04 650.73 C 364.98 654.73 365.02 658.73 365.09 662.73 C 369.38 662.69 373.66 662.70 377.96 662.74 C 378.00 658.59 378.05 654.44 378.10 650.30 C 376.06 650.15 374.02 650.01 371.98 649.87 C 371.27 629.98 371.85 610.07 371.66 590.17 C 371.33 590.17 370.66 590.18 370.33 590.19 C 369.73 609.25 371.60 628.46 369.47 647.42 C 368.37 627.95 369.30 608.41 369.00 588.91 Z" />
<path fill="#f57802" stroke="#f57802" stroke-width="0.09375" opacity="1.00" d=" M 421.90 600.54 C 424.42 597.21 428.68 598.02 428.45 602.63 C 427.02 603.16 425.60 603.70 424.18 604.25 C 423.42 603.00 422.66 601.76 421.90 600.54 Z" />
<path fill="#f57802" stroke="#f57802" stroke-width="0.09375" opacity="1.00" d=" M 567.30 605.68 C 569.33 602.92 571.79 600.51 574.49 598.40 C 573.46 600.29 572.41 602.17 571.34 604.05 C 596.90 604.14 622.46 604.25 648.02 604.15 C 660.45 604.08 672.93 605.60 685.32 603.97 C 685.62 604.50 686.22 605.56 686.52 606.08 C 646.79 605.81 607.02 606.34 567.30 605.68 Z" />
<path fill="#f57802" stroke="#f57802" stroke-width="0.09375" opacity="1.00" d=" M 568.79 613.44 C 607.96 613.21 647.14 613.00 686.31 613.49 C 675.86 622.09 662.97 629.19 649.05 628.68 C 633.69 628.43 618.34 628.38 602.99 628.30 C 590.16 628.03 578.39 621.52 568.79 613.44 M 573.79 615.41 C 582.63 621.62 592.91 626.79 603.96 626.70 C 619.66 626.79 635.35 626.68 651.05 626.88 C 662.52 627.18 672.85 621.31 682.12 615.18 C 646.01 615.13 609.90 614.98 573.79 615.41 Z" />
<path fill="#f57802" stroke="#f57802" stroke-width="0.09375" opacity="1.00" d=" M 610.66 635.71 C 621.44 635.64 632.22 635.61 642.99 635.77 C 643.10 640.92 645.30 648.92 638.78 651.04 C 629.50 651.46 619.39 652.88 610.90 648.19 C 610.81 644.02 610.70 639.87 610.66 635.71 M 612.15 637.15 C 612.27 640.62 612.38 644.10 612.47 647.58 C 620.50 650.72 629.32 649.91 637.74 649.52 C 643.34 648.49 641.43 641.27 641.85 637.20 C 631.95 637.32 622.05 637.41 612.15 637.15 Z" />
<path fill="#f57802" stroke="#f57802" stroke-width="0.09375" opacity="1.00" d=" M 718.54 656.81 C 720.14 657.38 721.74 657.97 723.34 658.60 C 722.46 659.77 721.57 660.94 720.70 662.13 C 719.50 661.44 718.31 660.76 717.12 660.09 C 717.58 658.99 718.06 657.89 718.54 656.81 Z" />
<path fill="#f57802" stroke="#f57802" stroke-width="0.09375" opacity="1.00" d=" M 615.06 658.05 C 622.26 657.97 629.45 657.97 636.65 658.11 C 637.06 671.83 639.08 685.48 638.96 699.23 C 630.91 695.54 623.34 690.88 615.10 687.64 C 614.93 677.77 615.11 667.91 615.06 658.05 M 616.88 660.00 C 616.67 668.83 617.14 677.67 616.54 686.50 C 623.77 689.59 630.73 693.26 637.58 697.12 C 636.50 684.76 636.19 672.34 634.80 659.99 C 628.83 659.85 622.85 659.90 616.88 660.00 Z" />
<path fill="#f57802" stroke="#f57802" stroke-width="0.09375" opacity="1.00" d=" M 450.09 661.75 C 452.40 662.15 454.72 662.57 457.04 662.99 C 457.20 687.36 455.86 711.70 454.55 736.03 C 454.04 749.58 451.01 762.86 447.98 776.03 C 437.56 776.39 427.12 775.91 416.72 776.76 C 417.47 768.82 418.41 760.90 419.04 752.96 C 421.38 750.92 423.80 748.98 426.31 747.16 C 418.23 754.17 419.49 765.39 418.08 774.96 C 427.69 774.92 437.29 774.93 446.90 774.82 C 456.00 738.66 453.55 701.11 455.78 664.21 C 454.29 664.14 452.80 664.07 451.32 664.01 C 450.91 685.74 448.66 707.39 447.80 729.10 C 447.54 729.25 447.02 729.53 446.76 729.67 C 446.58 706.98 449.40 684.41 450.09 661.75 Z" />
<path fill="#f57802" stroke="#f57802" stroke-width="0.09375" opacity="1.00" d=" M 345.30 677.09 C 347.51 674.91 349.75 672.75 352.02 670.63 C 363.99 670.52 375.96 670.94 387.93 670.94 C 390.05 674.15 392.42 677.18 394.91 680.12 C 398.16 683.45 396.66 688.49 396.87 692.65 C 392.57 692.67 388.27 692.84 383.98 693.01 C 383.96 695.64 383.94 698.28 383.93 700.93 C 388.28 700.88 392.64 700.86 397.00 700.86 C 396.97 706.91 396.97 712.95 396.99 719.00 C 393.08 719.13 389.17 719.26 385.26 719.29 C 385.04 721.26 384.80 723.23 384.53 725.21 C 384.00 725.75 383.47 726.29 382.95 726.85 C 383.30 723.91 383.66 720.97 384.03 718.04 C 387.73 717.89 391.43 717.74 395.13 717.62 C 395.21 712.50 395.19 707.39 395.08 702.28 C 391.18 702.27 387.05 703.07 383.31 701.63 C 381.13 699.11 381.82 695.01 383.17 692.19 C 387.09 690.71 391.37 690.96 395.49 690.72 C 395.94 683.47 391.94 676.09 385.63 672.61 C 377.12 671.62 368.49 672.71 359.94 672.07 C 354.50 671.48 349.64 674.18 345.30 677.09 Z" />
<path fill="#f57802" stroke="#f57802" stroke-width="0.09375" opacity="1.00" d=" M 340.17 693.64 C 339.39 687.83 338.10 680.88 344.16 677.39 C 341.97 681.90 340.98 686.87 341.13 691.89 C 351.69 691.78 362.28 691.31 372.81 692.32 C 372.36 695.54 374.43 702.22 369.45 702.33 C 360.04 702.51 350.62 702.08 341.21 702.15 C 341.18 719.77 340.93 737.38 341.03 755.00 C 340.93 760.29 342.36 766.68 338.08 770.80 C 340.12 763.69 339.23 756.27 339.34 749.00 C 339.28 732.98 339.56 716.95 339.28 700.92 C 349.85 700.53 360.43 700.60 371.00 700.88 C 370.97 698.33 370.94 695.78 370.91 693.24 C 360.67 693.54 350.40 692.95 340.17 693.64 Z" />
<path fill="#f57802" stroke="#f57802" stroke-width="0.09375" opacity="1.00" d=" M 264.25 680.00 C 266.63 680.13 266.68 682.83 267.35 684.54 C 265.76 684.65 264.17 684.76 262.57 684.86 C 263.03 683.20 263.43 681.52 264.25 680.00 Z" />
<path fill="#f57802" stroke="#f57802" stroke-width="0.09375" opacity="1.00" d=" M 508.17 691.26 L 509.12 691.07 C 509.76 709.37 508.76 727.67 509.17 745.98 C 499.54 746.19 489.79 745.17 480.31 747.27 C 479.08 756.87 478.95 766.56 478.95 776.23 C 473.31 776.36 467.68 776.40 462.04 776.25 C 462.32 771.02 462.66 765.78 463.43 760.60 C 464.02 765.39 464.22 770.23 464.07 775.06 C 468.41 775.03 472.75 775.01 477.09 774.96 C 477.80 765.37 477.45 755.70 479.17 746.20 C 488.51 743.56 498.25 744.33 507.83 744.13 C 508.01 726.51 507.14 708.84 508.17 691.26 Z" />
<path fill="#f57802" stroke="#f57802" stroke-width="0.09375" opacity="1.00" d=" M 569.23 706.23 C 582.74 690.26 609.20 689.56 624.65 703.07 C 615.87 699.15 606.93 694.42 596.99 695.12 C 586.50 694.76 577.74 701.03 569.23 706.23 Z" />
<path fill="#f57802" stroke="#f57802" stroke-width="0.09375" opacity="1.00" d=" M 635.55 717.98 C 632.57 712.95 628.75 708.53 625.49 703.70 C 631.28 707.70 635.13 713.74 638.43 719.82 C 612.42 719.97 586.40 719.96 560.39 719.79 C 562.16 714.88 564.76 710.19 568.89 706.88 C 566.95 710.64 564.83 714.31 562.70 717.98 C 586.98 718.32 611.27 718.41 635.55 717.98 Z" />
<path fill="#f57802" stroke="#f57802" stroke-width="0.09375" opacity="1.00" d=" M 385.22 726.90 C 389.14 726.97 393.07 726.97 397.00 726.98 C 397.00 730.32 397.00 733.66 397.01 737.00 C 393.04 737.05 389.07 737.09 385.10 737.12 L 385.21 736.17 C 388.66 735.73 392.13 735.56 395.61 735.36 C 395.57 733.09 395.54 730.84 395.52 728.58 C 392.20 728.40 388.86 728.24 385.57 727.70 L 385.22 726.90 Z" />
<path fill="#f57802" stroke="#f57802" stroke-width="0.09375" opacity="1.00" d=" M 464.60 729.37 C 466.49 738.61 464.87 748.10 464.46 757.42 C 464.16 755.86 463.86 754.30 463.62 752.75 C 463.31 744.96 463.77 737.12 464.60 729.37 Z" />
<path fill="#f57802" stroke="#f57802" stroke-width="0.09375" opacity="1.00" d=" M 549.32 730.80 C 583.28 731.04 617.25 731.00 651.22 730.99 C 651.29 734.97 651.32 738.96 651.23 742.95 C 617.44 741.59 583.60 741.58 549.79 740.99 C 549.65 737.59 549.51 734.19 549.32 730.80 M 551.06 732.12 C 551.13 734.66 551.22 737.21 551.31 739.75 C 584.19 739.76 617.06 740.49 649.92 741.23 C 649.87 738.19 649.82 735.17 649.79 732.15 C 616.88 732.19 583.97 732.17 551.06 732.12 Z" />
<path fill="#f57802" stroke="#f57802" stroke-width="0.09375" opacity="1.00" d=" M 384.96 745.17 C 389.24 745.33 393.52 745.23 397.80 745.07 C 397.83 756.03 398.05 766.99 398.03 777.95 C 388.34 777.78 378.68 778.68 368.99 778.74 C 368.95 786.79 368.94 794.84 368.96 802.90 C 354.04 805.43 340.83 813.16 327.10 819.07 C 327.00 809.04 326.11 799.02 326.18 788.99 C 326.03 785.28 328.95 782.64 331.11 780.01 C 324.44 791.32 329.57 804.84 327.95 817.16 C 340.80 811.56 353.27 804.74 367.10 801.80 C 368.09 793.81 365.57 785.18 368.66 777.62 C 377.87 775.99 387.35 777.22 396.65 776.06 C 396.19 766.36 396.24 756.66 395.97 746.96 C 392.31 746.98 388.65 747.01 384.99 747.07 C 384.98 746.60 384.97 745.65 384.96 745.17 Z" />
<path fill="#f57802" stroke="#f57802" stroke-width="0.09375" opacity="1.00" d=" M 301.02 754.99 C 296.87 752.34 298.28 748.22 303.25 748.93 C 302.63 750.99 301.89 753.01 301.02 754.99 Z" />
<path fill="#f57802" stroke="#f57802" stroke-width="0.09375" opacity="1.00" d=" M 550.72 750.04 L 552.32 749.80 C 552.24 752.13 552.15 754.46 552.06 756.80 C 562.99 756.87 573.92 756.69 584.85 757.02 C 585.15 764.97 584.95 772.92 584.88 780.87 C 586.23 781.39 587.59 781.92 588.90 782.55 C 589.15 782.84 589.64 783.41 589.88 783.70 C 587.63 783.34 585.39 783.01 583.14 782.69 C 583.92 774.55 583.59 766.38 583.73 758.22 C 572.76 758.21 561.78 757.90 550.81 758.00 C 550.78 755.34 550.75 752.68 550.72 750.04 Z" />
<path fill="#f57802" stroke="#f57802" stroke-width="0.09375" opacity="1.00" d=" M 558.28 750.58 C 594.08 749.96 629.94 749.22 665.76 750.05 C 666.89 766.84 670.49 783.33 672.10 800.06 C 668.41 799.10 664.74 798.07 661.10 796.97 C 659.60 783.79 657.82 770.65 656.32 757.47 C 653.16 757.68 650.00 757.85 646.85 758.00 C 647.03 770.13 648.22 782.22 648.21 794.35 C 645.53 793.76 642.85 793.17 640.17 792.62 C 638.80 781.38 638.93 770.02 637.71 758.77 C 632.84 758.48 627.96 758.54 623.10 758.79 C 623.04 768.60 623.12 778.42 622.97 788.24 C 619.67 787.49 616.38 786.72 613.09 785.96 C 613.07 781.10 613.01 776.22 613.32 771.37 C 613.63 766.78 614.06 762.20 614.53 757.64 C 614.99 766.75 614.55 775.87 614.81 784.99 C 617.17 785.39 619.55 785.81 621.92 786.22 C 622.27 776.74 620.46 767.05 622.63 757.72 C 627.88 756.32 633.37 757.01 638.72 757.25 C 640.28 768.40 640.53 779.68 641.21 790.91 C 643.03 791.65 644.85 792.40 646.68 793.16 C 646.73 780.91 645.07 768.71 645.46 756.45 C 649.52 756.36 653.59 756.30 657.67 756.29 C 659.59 769.42 660.50 782.67 662.35 795.81 C 664.95 796.56 667.56 797.30 670.18 798.03 C 668.58 782.56 666.24 767.17 664.01 751.78 C 627.31 749.29 590.49 753.25 553.78 751.42 C 555.27 751.11 556.77 750.82 558.28 750.58 Z" />
<path fill="#f57802" stroke="#f57802" stroke-width="0.09375" opacity="1.00" d=" M 592.67 757.87 C 599.35 756.51 606.23 757.40 612.99 757.07 C 613.00 757.53 613.02 758.44 613.04 758.89 C 606.36 758.62 599.69 758.86 593.01 758.78 C 592.99 767.22 592.90 775.67 592.99 784.12 C 592.38 783.91 591.18 783.48 590.57 783.27 C 592.69 774.92 589.61 765.97 592.67 757.87 Z" />
<path fill="#f57802" stroke="#f57802" stroke-width="0.09375" opacity="1.00" d=" M 705.24 776.69 C 706.94 777.17 711.05 777.09 709.78 779.84 C 709.45 782.39 706.68 781.39 704.96 781.31 C 705.04 779.76 705.14 778.22 705.24 776.69 Z" />
<path fill="#f57802" stroke="#f57802" stroke-width="0.09375" opacity="1.00" d=" M 473.11 804.83 C 493.55 802.92 514.27 801.46 534.74 803.64 C 514.84 804.57 494.85 803.57 475.02 806.02 C 441.64 807.22 408.90 814.98 377.21 825.12 C 358.61 831.57 339.96 838.18 322.68 847.74 C 318.29 850.26 313.73 852.45 308.98 854.20 C 344.11 832.69 384.03 820.14 424.01 811.11 C 440.10 807.31 456.61 805.57 473.11 804.83 Z" />
<path fill="#f57802" stroke="#f57802" stroke-width="0.09375" opacity="1.00" d=" M 534.64 804.36 C 536.14 804.08 537.64 803.81 539.16 803.61 C 548.29 803.71 557.51 804.40 566.43 806.44 C 555.79 807.05 545.25 804.78 534.64 804.36 Z" />
<path fill="#f57802" stroke="#f57802" stroke-width="0.09375" opacity="1.00" d=" M 568.99 806.28 C 595.75 810.67 622.69 815.36 648.23 824.71 C 637.26 823.47 627.06 818.87 616.30 816.64 C 599.98 813.15 583.62 809.70 567.06 807.54 C 567.70 807.11 568.34 806.69 568.99 806.28 Z" />
<path fill="#f57802" stroke="#f57802" stroke-width="0.09375" opacity="1.00" d=" M 346.76 850.88 C 434.67 817.67 532.84 810.62 624.07 834.03 C 662.02 844.23 699.19 858.15 733.46 877.50 C 742.32 883.71 753.03 887.45 760.61 895.35 C 748.61 888.47 737.04 880.83 724.91 874.16 C 669.17 845.50 607.88 826.65 545.14 822.87 C 477.03 818.15 407.86 828.66 344.17 853.25 C 338.11 855.54 332.25 858.38 325.98 860.09 C 332.46 856.08 339.66 853.54 346.76 850.88 Z" />
<path fill="#f57802" stroke="#f57802" stroke-width="0.09375" opacity="1.00" d=" M 652.18 826.43 C 651.99 826.21 651.61 825.79 651.42 825.58 C 665.71 830.30 679.95 835.67 693.27 842.71 C 679.33 838.00 665.68 832.18 652.18 826.43 Z" />
<path fill="#f57802" stroke="#f57802" stroke-width="0.09375" opacity="1.00" d=" M 718.28 857.73 C 710.80 852.76 702.40 849.22 695.38 843.58 C 713.47 852.43 730.90 863.05 746.89 875.32 C 736.77 870.45 728.18 863.03 718.28 857.73 Z" />
<path fill="#f57802" stroke="#f57802" stroke-width="0.09375" opacity="1.00" d=" M 268.41 890.38 C 285.99 879.54 303.46 867.74 323.23 861.30 C 318.02 864.70 312.14 866.78 306.61 869.56 C 287.61 878.87 270.27 891.08 252.33 902.20 C 256.70 897.04 262.91 894.10 268.41 890.38 Z" />
<path fill="#f57802" stroke="#f57802" stroke-width="0.09375" opacity="1.00" d=" M 212.87 934.76 C 225.19 920.86 237.44 906.62 251.71 894.67 C 246.81 901.44 240.22 906.67 234.81 913.00 C 237.19 911.96 239.57 910.92 241.91 909.78 C 231.76 917.57 222.28 926.12 212.87 934.76 Z" />
<path fill="#f57802" stroke="#f57802" stroke-width="0.09375" opacity="1.00" d=" M 794.44 916.60 C 788.55 912.61 783.17 907.68 779.48 901.55 C 784.92 906.07 790.00 911.07 794.44 916.60 Z" />
<path fill="#f57802" stroke="#f57802" stroke-width="0.09375" opacity="1.00" d=" M 792.75 919.82 C 793.81 919.13 794.89 918.45 795.99 917.79 C 801.91 924.94 808.67 931.40 814.19 938.88 C 806.78 932.83 800.42 925.58 792.75 919.82 Z" />
</g>
<g id="#e86801ff">
<path fill="#e86801" stroke="#e86801" stroke-width="0.09375" opacity="1.00" d=" M 704.63 296.93 C 706.43 294.96 708.25 293.01 710.10 291.09 C 707.29 297.87 700.48 301.81 697.71 308.54 C 697.56 309.04 697.44 309.56 697.33 310.08 L 696.57 310.29 C 696.22 310.39 695.52 310.59 695.16 310.69 C 681.88 322.11 670.24 335.44 657.50 347.51 C 653.89 350.92 649.97 354.33 648.22 359.14 C 648.10 359.40 647.87 359.92 647.75 360.19 L 647.18 360.29 C 646.87 360.35 646.27 360.46 645.97 360.52 C 636.27 369.54 637.88 383.99 640.76 395.63 C 640.88 393.70 641.01 391.76 641.09 389.83 C 641.99 394.80 642.62 399.82 643.23 404.84 C 644.13 404.31 645.02 403.78 645.93 403.24 C 650.09 400.95 653.60 397.69 656.80 394.21 C 656.81 395.48 656.82 396.75 656.85 398.03 C 658.22 397.70 659.59 397.36 660.97 397.04 C 656.42 401.79 651.59 406.26 647.01 410.99 C 641.25 416.45 644.13 425.11 645.36 431.86 L 646.25 432.11 L 647.11 432.29 C 649.96 431.68 651.90 429.49 653.14 426.97 C 653.45 426.58 654.06 425.80 654.37 425.41 C 664.34 418.52 670.90 407.83 681.09 401.14 C 676.72 411.25 669.00 419.16 662.81 428.08 C 661.81 429.54 660.77 430.98 659.73 432.41 L 658.93 432.38 C 654.18 431.56 656.73 437.08 659.14 432.87 C 658.84 433.35 658.26 434.30 657.96 434.77 C 657.07 435.19 656.19 435.61 655.31 436.04 C 648.80 438.33 644.06 443.63 641.86 450.09 C 639.23 456.07 634.32 460.55 630.56 465.78 C 622.08 474.54 612.21 482.77 601.13 487.90 C 600.63 488.01 599.63 488.24 599.13 488.36 C 608.84 476.02 622.58 467.15 631.07 453.87 C 633.41 449.57 636.59 445.61 637.78 440.78 C 638.80 435.36 637.46 429.88 637.63 424.43 C 637.47 411.49 633.91 398.87 633.13 385.94 C 631.10 376.31 634.26 366.77 638.35 358.13 C 639.73 355.11 642.17 352.72 644.85 350.83 C 651.44 346.56 656.35 340.35 661.94 334.94 C 667.47 329.05 674.02 323.98 678.13 316.90 C 678.90 315.67 679.94 314.58 681.31 314.02 C 683.01 313.41 684.51 312.24 685.15 310.50 C 683.87 310.73 682.57 311.07 681.50 311.83 C 682.65 310.87 683.81 309.92 684.98 308.99 L 685.55 308.68 C 691.70 305.81 695.65 300.09 700.26 295.36 C 701.71 295.88 703.17 296.41 704.63 296.93 Z" />
<path fill="#e86801" stroke="#e86801" stroke-width="0.09375" opacity="1.00" d=" M 514.31 385.01 C 521.06 400.58 525.51 417.00 530.85 433.07 C 531.62 436.06 533.84 438.27 536.71 439.31 L 537.48 439.68 L 537.56 439.92 C 538.02 441.21 538.46 442.50 538.91 443.80 C 529.43 447.97 519.56 451.46 509.01 449.92 C 499.29 451.54 490.52 447.55 482.02 443.50 C 485.69 439.82 489.52 435.87 490.65 430.60 C 494.36 415.64 497.10 400.43 501.83 385.74 C 502.67 400.89 500.28 415.93 499.86 431.05 C 506.25 431.72 512.72 431.92 519.12 431.15 C 517.65 415.76 515.04 400.48 514.31 385.01 Z" />
<path fill="#e86801" stroke="#e86801" stroke-width="0.09375" opacity="1.00" d=" M 594.18 407.69 C 599.03 417.44 601.29 429.41 596.66 439.66 C 592.67 447.48 586.93 455.04 578.66 458.64 C 569.08 462.89 558.53 464.65 548.10 464.96 C 548.02 461.45 548.02 457.95 548.09 454.44 C 557.02 453.90 566.57 454.12 574.63 449.64 C 579.52 447.04 582.86 442.53 586.84 438.82 C 594.83 432.02 590.39 420.37 589.26 411.56 C 590.04 412.94 590.82 414.33 591.61 415.73 C 592.43 413.04 593.28 410.35 594.18 407.69 Z" />
<path fill="#e86801" stroke="#e86801" stroke-width="0.09375" opacity="1.00" d=" M 501.40 460.34 L 502.23 460.21 C 502.02 464.61 501.88 469.03 501.70 473.44 C 498.90 473.06 496.09 472.75 493.29 472.48 C 493.28 468.84 493.29 465.21 493.31 461.58 C 496.00 461.19 498.70 460.78 501.40 460.34 Z" />
<path fill="#e86801" stroke="#e86801" stroke-width="0.09375" opacity="1.00" d=" M 486.26 478.28 C 492.09 478.30 497.92 478.23 503.75 478.15 C 503.62 485.35 503.60 492.56 503.77 499.76 C 497.93 499.62 492.09 499.62 486.26 499.75 C 486.37 492.59 486.37 485.43 486.26 478.28 Z" />
<path fill="#e86801" stroke="#e86801" stroke-width="0.09375" opacity="1.00" d=" M 509.15 508.63 L 509.59 508.55 L 509.92 509.19 C 518.53 522.78 513.63 539.58 516.67 554.57 C 517.32 548.36 517.38 542.12 517.15 535.90 C 517.60 543.77 518.39 551.71 517.54 559.59 C 515.46 572.85 517.53 586.26 517.39 599.60 C 514.18 607.04 517.83 615.37 514.56 622.86 C 515.37 622.73 516.20 622.61 517.03 622.50 C 516.21 623.47 515.40 624.45 514.59 625.42 C 510.90 623.78 507.11 622.38 503.31 621.05 C 503.42 622.26 503.54 623.48 503.67 624.71 C 500.67 623.51 497.78 622.04 495.10 620.25 C 495.43 621.27 495.77 622.31 496.11 623.34 C 489.47 622.34 481.86 626.58 476.87 620.00 C 476.37 621.02 475.88 622.04 475.40 623.07 C 474.99 622.23 474.18 620.55 473.78 619.71 C 473.58 623.04 474.00 626.38 475.07 629.56 C 473.47 628.76 471.87 627.99 470.27 627.22 C 469.25 661.17 467.16 695.07 466.04 729.02 C 465.39 728.35 464.74 727.69 464.10 727.04 C 467.25 660.69 469.97 594.34 473.05 527.99 C 473.37 522.75 472.13 515.81 477.57 512.71 C 487.34 507.37 498.78 511.57 509.15 508.63 Z" />
<path fill="#e86801" stroke="#e86801" stroke-width="0.09375" opacity="1.00" d=" M 626.52 557.23 C 626.21 542.08 626.20 526.92 626.52 511.78 C 626.76 526.92 626.77 542.08 626.52 557.23 Z" />
<path fill="#e86801" stroke="#e86801" stroke-width="0.09375" opacity="1.00" d=" M 617.05 564.25 C 623.65 564.37 630.25 564.37 636.86 564.26 C 636.91 567.46 636.98 570.67 637.04 573.88 C 630.34 573.74 623.64 573.78 616.94 573.97 C 616.97 570.73 617.01 567.49 617.05 564.25 Z" />
<path fill="#e86801" stroke="#e86801" stroke-width="0.09375" opacity="1.00" d=" M 615.27 584.73 C 628.75 585.08 642.78 583.27 655.62 588.44 C 665.21 591.32 673.48 597.01 682.09 601.91 C 683.18 602.55 684.25 603.26 685.32 603.97 C 672.93 605.60 660.45 604.08 648.02 604.15 C 622.46 604.25 596.90 604.14 571.34 604.05 C 572.41 602.17 573.46 600.29 574.49 598.40 L 574.79 597.83 C 576.21 596.98 577.62 596.13 579.12 595.42 C 590.59 590.23 602.37 584.61 615.27 584.73 Z" />
<path fill="#e86801" stroke="#e86801" stroke-width="0.09375" opacity="1.00" d=" M 305.88 601.23 C 308.24 602.15 311.47 602.93 311.73 605.99 C 311.13 608.71 307.74 611.04 305.42 608.64 C 302.60 606.79 305.07 603.48 305.88 601.23 Z" />
<path fill="#e86801" stroke="#e86801" stroke-width="0.09375" opacity="1.00" d=" M 686.04 680.64 C 688.48 681.10 692.43 681.41 692.09 684.85 C 690.65 686.50 688.31 685.83 686.41 686.04 C 686.27 684.23 686.14 682.43 686.04 680.64 Z" />
<path fill="#e86801" stroke="#e86801" stroke-width="0.09375" opacity="1.00" d=" M 739.63 818.09 C 741.07 816.97 742.54 815.89 744.02 814.81 C 745.02 816.57 746.97 819.07 744.64 820.71 C 742.50 821.20 741.10 819.22 739.63 818.09 Z" />
</g>
<g id="#a05303ff">
<path fill="#a05303" stroke="#a05303" stroke-width="0.09375" opacity="1.00" d=" M 632.34 392.31 C 632.80 394.00 633.09 395.75 633.07 397.52 C 630.98 397.41 630.82 393.41 632.34 392.31 Z" />
</g>
<g id="#e05d01ff">
<path fill="#e05d01" stroke="#e05d01" stroke-width="0.09375" opacity="1.00" d=" M 730.96 572.91 C 731.56 573.11 732.76 573.52 733.36 573.72 C 733.49 574.33 733.75 575.55 733.88 576.15 C 732.62 576.12 731.37 576.09 730.13 576.06 C 730.40 575.00 730.67 573.95 730.96 572.91 Z" />
<path fill="#e05d01" stroke="#e05d01" stroke-width="0.09375" opacity="1.00" d=" M 370.33 590.19 C 370.66 590.18 371.33 590.17 371.66 590.17 C 371.85 610.07 371.27 629.98 371.98 649.87 C 374.02 650.01 376.06 650.15 378.10 650.30 C 378.05 654.44 378.00 658.59 377.96 662.74 C 373.66 662.70 369.38 662.69 365.09 662.73 C 365.02 658.73 364.98 654.73 365.04 650.73 C 366.20 650.34 367.35 649.95 368.51 649.54 L 368.97 648.90 C 369.09 648.53 369.35 647.79 369.47 647.42 C 371.60 628.46 369.73 609.25 370.33 590.19 Z" />
<path fill="#e05d01" stroke="#e05d01" stroke-width="0.09375" opacity="1.00" d=" M 514.56 622.86 C 517.83 615.37 514.18 607.04 517.39 599.60 C 518.00 619.05 518.71 638.49 519.14 657.94 C 521.21 658.13 523.30 658.33 525.39 658.53 C 525.78 661.13 526.19 663.73 526.65 666.33 C 526.96 665.39 527.26 664.46 527.56 663.53 C 528.86 690.67 529.22 717.86 530.05 745.03 C 526.45 745.01 522.86 744.97 519.28 744.89 C 519.52 726.58 518.78 708.27 518.88 689.96 C 515.62 690.26 512.34 690.48 509.12 691.07 L 508.17 691.26 C 507.14 708.84 508.01 726.51 507.83 744.13 C 498.25 744.33 488.51 743.56 479.17 746.20 C 477.45 755.70 477.80 765.37 477.09 774.96 C 472.75 775.01 468.41 775.03 464.07 775.06 C 464.22 770.23 464.02 765.39 463.43 760.60 C 463.12 757.98 463.28 755.35 463.62 752.75 C 463.86 754.30 464.16 755.86 464.46 757.42 C 464.87 748.10 466.49 738.61 464.60 729.37 C 464.47 728.79 464.22 727.62 464.10 727.04 C 464.74 727.69 465.39 728.35 466.04 729.02 C 467.16 695.07 469.25 661.17 470.27 627.22 C 471.87 627.99 473.47 628.76 475.07 629.56 C 474.00 626.38 473.58 623.04 473.78 619.71 C 474.18 620.55 474.99 622.23 475.40 623.07 C 475.88 622.04 476.37 621.02 476.87 620.00 C 481.86 626.58 489.47 622.34 496.11 623.34 C 495.77 622.31 495.43 621.27 495.10 620.25 C 497.78 622.04 500.67 623.51 503.67 624.71 C 503.54 623.48 503.42 622.26 503.31 621.05 C 507.11 622.38 510.90 623.78 514.59 625.42 C 515.40 624.45 516.21 623.47 517.03 622.50 C 516.20 622.61 515.37 622.73 514.56 622.86 Z" />
<path fill="#e05d01" stroke="#e05d01" stroke-width="0.09375" opacity="1.00" d=" M 573.79 615.41 C 609.90 614.98 646.01 615.13 682.12 615.18 C 672.85 621.31 662.52 627.18 651.05 626.88 C 635.35 626.68 619.66 626.79 603.96 626.70 C 592.91 626.79 582.63 621.62 573.79 615.41 Z" />
<path fill="#e05d01" stroke="#e05d01" stroke-width="0.09375" opacity="1.00" d=" M 612.15 637.15 C 622.05 637.41 631.95 637.32 641.85 637.20 C 641.43 641.27 643.34 648.49 637.74 649.52 C 629.32 649.91 620.50 650.72 612.47 647.58 C 612.38 644.10 612.27 640.62 612.15 637.15 Z" />
<path fill="#e05d01" stroke="#e05d01" stroke-width="0.09375" opacity="1.00" d=" M 616.88 660.00 C 622.85 659.90 628.83 659.85 634.80 659.99 C 636.19 672.34 636.50 684.76 637.58 697.12 C 630.73 693.26 623.77 689.59 616.54 686.50 C 617.14 677.67 616.67 668.83 616.88 660.00 Z" />
<path fill="#e05d01" stroke="#e05d01" stroke-width="0.09375" opacity="1.00" d=" M 451.32 664.01 C 452.80 664.07 454.29 664.14 455.78 664.21 C 453.55 701.11 456.00 738.66 446.90 774.82 C 437.29 774.93 427.69 774.92 418.08 774.96 C 419.49 765.39 418.23 754.17 426.31 747.16 C 432.74 740.95 439.14 734.42 446.76 729.67 C 447.02 729.53 447.54 729.25 447.80 729.10 C 448.66 707.39 450.91 685.74 451.32 664.01 Z" />
<path fill="#e05d01" stroke="#e05d01" stroke-width="0.09375" opacity="1.00" d=" M 345.30 677.09 C 349.64 674.18 354.50 671.48 359.94 672.07 C 368.49 672.71 377.12 671.62 385.63 672.61 C 391.94 676.09 395.94 683.47 395.49 690.72 C 391.37 690.96 387.09 690.71 383.17 692.19 C 381.82 695.01 381.13 699.11 383.31 701.63 C 387.05 703.07 391.18 702.27 395.08 702.28 C 395.19 707.39 395.21 712.50 395.13 717.62 C 391.43 717.74 387.73 717.89 384.03 718.04 C 383.66 720.97 383.30 723.91 382.95 726.85 C 383.47 726.29 384.00 725.75 384.53 725.21 C 384.71 725.64 385.05 726.48 385.22 726.90 L 385.57 727.70 C 388.86 728.24 392.20 728.40 395.52 728.58 C 395.54 730.84 395.57 733.09 395.61 735.36 C 392.13 735.56 388.66 735.73 385.21 736.17 L 385.10 737.12 C 384.85 739.79 384.93 742.48 384.96 745.17 C 384.97 745.65 384.98 746.60 384.99 747.07 C 388.65 747.01 392.31 746.98 395.97 746.96 C 396.24 756.66 396.19 766.36 396.65 776.06 C 387.35 777.22 377.87 775.99 368.66 777.62 C 365.57 785.18 368.09 793.81 367.10 801.80 C 353.27 804.74 340.80 811.56 327.95 817.16 C 329.57 804.84 324.44 791.32 331.11 780.01 C 332.86 776.54 335.39 773.56 338.08 770.80 C 342.36 766.68 340.93 760.29 341.03 755.00 C 340.93 737.38 341.18 719.77 341.21 702.15 C 350.62 702.08 360.04 702.51 369.45 702.33 C 374.43 702.22 372.36 695.54 372.81 692.32 C 362.28 691.31 351.69 691.78 341.13 691.89 C 340.98 686.87 341.97 681.90 344.16 677.39 C 344.44 677.31 345.01 677.16 345.30 677.09 Z" />
<path fill="#e05d01" stroke="#e05d01" stroke-width="0.09375" opacity="1.00" d=" M 569.23 706.23 C 577.74 701.03 586.50 694.76 596.99 695.12 C 606.93 694.42 615.87 699.15 624.65 703.07 C 624.86 703.23 625.28 703.54 625.49 703.70 C 628.75 708.53 632.57 712.95 635.55 717.98 C 611.27 718.41 586.98 718.32 562.70 717.98 C 564.83 714.31 566.95 710.64 568.89 706.88 L 569.23 706.23 Z" />
<path fill="#e05d01" stroke="#e05d01" stroke-width="0.09375" opacity="1.00" d=" M 745.17 730.11 C 747.45 726.78 750.99 725.50 754.54 727.80 C 753.95 729.80 754.13 732.30 752.54 733.87 C 749.33 734.98 747.15 732.08 745.17 730.11 Z" />
<path fill="#e05d01" stroke="#e05d01" stroke-width="0.09375" opacity="1.00" d=" M 551.06 732.12 C 583.97 732.17 616.88 732.19 649.79 732.15 C 649.82 735.17 649.87 738.19 649.92 741.23 C 617.06 740.49 584.19 739.76 551.31 739.75 C 551.22 737.21 551.13 734.66 551.06 732.12 Z" />
<path fill="#e05d01" stroke="#e05d01" stroke-width="0.09375" opacity="1.00" d=" M 552.32 749.80 C 554.30 750.05 556.29 750.30 558.28 750.58 C 556.77 750.82 555.27 751.11 553.78 751.42 C 590.49 753.25 627.31 749.29 664.01 751.78 C 666.24 767.17 668.58 782.56 670.18 798.03 C 667.56 797.30 664.95 796.56 662.35 795.81 C 660.50 782.67 659.59 769.42 657.67 756.29 C 653.59 756.30 649.52 756.36 645.46 756.45 C 645.07 768.71 646.73 780.91 646.68 793.16 C 644.85 792.40 643.03 791.65 641.21 790.91 C 640.53 779.68 640.28 768.40 638.72 757.25 C 633.37 757.01 627.88 756.32 622.63 757.72 C 620.46 767.05 622.27 776.74 621.92 786.22 C 619.55 785.81 617.17 785.39 614.81 784.99 C 614.55 775.87 614.99 766.75 614.53 757.64 C 614.06 762.20 613.63 766.78 613.32 771.37 C 613.20 767.21 613.12 763.05 613.04 758.89 C 613.02 758.44 613.00 757.53 612.99 757.07 C 606.23 757.40 599.35 756.51 592.67 757.87 C 589.61 765.97 592.69 774.92 590.57 783.27 C 590.53 783.54 590.46 784.09 590.42 784.36 L 589.88 783.70 C 589.64 783.41 589.15 782.84 588.90 782.55 C 587.59 781.92 586.23 781.39 584.88 780.87 C 584.95 772.92 585.15 764.97 584.85 757.02 C 573.92 756.69 562.99 756.87 552.06 756.80 C 552.15 754.46 552.24 752.13 552.32 749.80 Z" />
<path fill="#e05d01" stroke="#e05d01" stroke-width="0.09375" opacity="1.00" d=" M 253.56 787.45 C 255.85 785.11 258.54 787.86 260.71 788.92 C 259.77 790.99 259.38 794.10 256.65 794.54 C 252.93 795.20 250.14 789.75 253.56 787.45 Z" />
<path fill="#e05d01" stroke="#e05d01" stroke-width="0.09375" opacity="1.00" d=" M 534.74 803.64 C 536.21 803.54 537.68 803.56 539.16 803.61 C 537.64 803.81 536.14 804.08 534.64 804.36 C 545.25 804.78 555.79 807.05 566.43 806.44 C 567.07 806.40 568.35 806.32 568.99 806.28 C 568.34 806.69 567.70 807.11 567.06 807.54 C 583.62 809.70 599.98 813.15 616.30 816.64 C 627.06 818.87 637.26 823.47 648.23 824.71 C 649.15 824.82 650.09 824.97 651.02 825.13 L 651.42 825.58 C 651.61 825.79 651.99 826.21 652.18 826.43 C 665.68 832.18 679.33 838.00 693.27 842.71 C 693.82 842.87 694.38 843.04 694.95 843.23 L 695.38 843.58 C 702.40 849.22 710.80 852.76 718.28 857.73 C 728.18 863.03 736.77 870.45 746.89 875.32 C 758.78 882.58 769.71 891.64 779.48 901.55 C 783.17 907.68 788.55 912.61 794.44 916.60 C 794.96 916.96 795.48 917.36 795.99 917.79 C 794.89 918.45 793.81 919.13 792.75 919.82 C 782.56 910.97 771.35 903.43 760.61 895.35 C 753.03 887.45 742.32 883.71 733.46 877.50 C 699.19 858.15 662.02 844.23 624.07 834.03 C 532.84 810.62 434.67 817.67 346.76 850.88 C 339.66 853.54 332.46 856.08 325.98 860.09 C 325.09 860.56 324.17 860.97 323.23 861.30 C 303.46 867.74 285.99 879.54 268.41 890.38 C 262.91 894.10 256.70 897.04 252.33 902.20 C 249.22 905.17 245.74 907.81 241.91 909.78 C 239.57 910.92 237.19 911.96 234.81 913.00 C 240.22 906.67 246.81 901.44 251.71 894.67 C 262.77 883.56 275.99 874.74 288.96 866.00 C 295.58 861.99 301.75 857.10 308.98 854.20 C 313.73 852.45 318.29 850.26 322.68 847.74 C 339.96 838.18 358.61 831.57 377.21 825.12 C 408.90 814.98 441.64 807.22 475.02 806.02 C 494.85 803.57 514.84 804.57 534.74 803.64 Z" />
<path fill="#e05d01" stroke="#e05d01" stroke-width="0.09375" opacity="1.00" d=" M 284.41 821.77 C 285.31 820.33 286.23 818.90 287.17 817.50 C 288.57 819.17 289.51 821.15 289.59 823.37 C 287.85 822.85 286.13 822.32 284.41 821.77 Z" />
</g>
</svg>
